<?xml version="1.0" standalone="yes"?>
<svg xmlns="http://www.w3.org/2000/svg" width="14" height="14">
<path style="fill:#ffffff; stroke:none;" d="M0 0L2 13L5 13L5 8L9 8L9 13L12 13L14 0L13 0L13 6L12 6L12 1L11 1L10 4L10 0L0 0z"/>
<path style="fill:#646567; stroke:none;" d="M6.66667 0.333333L7.33333 0.666667L6.66667 0.333333M10 0L10 4L11 1L12 1L12 6L13 6L13 0L10 0M1 6L2 7C6.09098 4.7314 7.90902 4.7314 12 7L9 1L1 6z"/>
<path style="fill:#ffffff; stroke:none;" d="M5 2L2 6L5 2z"/>
<path style="fill:#646567; stroke:none;" d="M0 6L1 14L13 14L14 6L13 6L12 13L9 13L9 8L5 8L5 13L2 13L0 6z"/>
<path style="fill:#ffffff; stroke:none;" d="M0 8L0 14L1 14L0 8M13 8L13 14L14 14L13 8M6 9L6 13L8 13L8 9L6 9z"/>
</svg>
