<?xml version="1.0" standalone="no"?>
<!DOCTYPE svg PUBLIC "-//W3C//DTD SVG 20010904//EN"
 "http://www.w3.org/TR/2001/REC-SVG-20010904/DTD/svg10.dtd">
<svg version="1.0" xmlns="http://www.w3.org/2000/svg"
 width="14.000000pt" height="14.000000pt" viewBox="0 0 14.000000 14.000000"
 preserveAspectRatio="xMidYMid meet">

<g transform="translate(0.000000,14.000000) scale(0.100000,-0.100000)"
fill="#000000" stroke="none">
<path d="M33 108 c-26 -28 -30 -39 -26 -70 l5 -38 58 0 58 0 4 35 c6 49 -2
105 -14 105 -6 0 -17 -8 -25 -17 -8 -12 -12 -13 -11 -4 5 26 -18 21 -49 -11z
m19 -5 c-15 -16 -18 -19 -5 -9 23 19 23 19 50 -5 l28 -24 -20 24 c-11 14 -15
21 -8 18 6 -4 13 -2 16 5 2 7 3 5 2 -4 -2 -10 0 -20 4 -22 4 -3 5 -21 3 -40
-5 -42 -32 -51 -32 -11 0 18 -5 25 -20 25 -15 0 -20 -7 -20 -25 0 -38 -28 -32
-32 8 -3 23 3 40 21 60 14 15 28 27 33 27 5 0 -4 -12 -20 -27z m28 -73 c0 -11
-4 -20 -10 -20 -5 0 -10 9 -10 20 0 11 5 20 10 20 6 0 10 -9 10 -20z"/>
</g>
</svg>
