<?xml version="1.0" standalone="no"?>
<!DOCTYPE svg PUBLIC "-//W3C//DTD SVG 20010904//EN"
 "http://www.w3.org/TR/2001/REC-SVG-20010904/DTD/svg10.dtd">
<svg version="1.0" xmlns="http://www.w3.org/2000/svg"
 width="23.000000pt" height="19.000000pt" viewBox="0 0 23.000000 19.000000"
 preserveAspectRatio="xMidYMid meet">

<g transform="translate(0.000000,19.000000) scale(0.100000,-0.100000)"
fill="#000000" stroke="none">
<path d="M40 90 l0 -60 75 0 75 0 0 60 0 60 -75 0 -75 0 0 -60z m138 -2 l3
-48 -65 0 -66 0 0 43 c0 24 3 47 7 51 4 4 32 6 63 4 l55 -3 3 -47z"/>
<path d="M84 102 l30 -32 28 27 c15 15 28 29 28 32 0 3 -12 -7 -27 -22 l-27
-27 -31 28 -30 27 29 -33z"/>
</g>
</svg>
