<svg version="1.0" xmlns="http://www.w3.org/2000/svg" width="22.667" height="21.333" viewBox="0 0 17 16"><path d="M7.2 1.6c-1.6 1.7-1.5 5.1.1 5.7.6.3-.3.6-2 .6C3.1 8 2 8.5 2 9.5c0 .8-.4 1.5-1 1.5-.5 0-1 1.1-1 2.5 0 2 .5 2.5 2.5 2.5S5 15.5 5 13.5c0-1.4-.4-2.5-1-2.5-.5 0-1-.5-1-1 0-.6 1.1-1 2.5-1S8 9.4 8 10c0 .5-.4 1-1 1-.5 0-1 1.1-1 2.5 0 2 .5 2.5 2.5 2.5s2.5-.5 2.5-2.5c0-1.4-.4-2.5-1-2.5-.5 0-1-.5-1-1 0-.6 1.1-1 2.5-1s2.5.4 2.5 1c0 .5-.4 1-1 1-.5 0-1 1.1-1 2.5 0 2 .5 2.5 2.5 2.5s2.5-.5 2.5-2.5c0-1.4-.4-2.5-1-2.5-.5 0-1-.7-1-1.5 0-1-1.1-1.5-3.2-1.6-1.8 0-2.7-.3-2-.6 1.6-.6 1.6-4.1-.1-5.7-1-1.1-1.5-1.1-2.5 0zM10 4.5C10 5.3 9.3 6 8.5 6S7 5.3 7 4.5 7.7 3 8.5 3s1.5.7 1.5 1.5zm-6 9c0 .8-.7 1.5-1.5 1.5S1 14.3 1 13.5 1.7 12 2.5 12s1.5.7 1.5 1.5zm6 0c0 .8-.7 1.5-1.5 1.5S7 14.3 7 13.5 7.7 12 8.5 12s1.5.7 1.5 1.5zm6 0c0 .8-.7 1.5-1.5 1.5s-1.5-.7-1.5-1.5.7-1.5 1.5-1.5 1.5.7 1.5 1.5z"/></svg>