<?xml version="1.0" standalone="no"?>
<!DOCTYPE svg PUBLIC "-//W3C//DTD SVG 20010904//EN"
 "http://www.w3.org/TR/2001/REC-SVG-20010904/DTD/svg10.dtd">
<svg version="1.0" xmlns="http://www.w3.org/2000/svg"
 width="17.000000pt" height="16.000000pt" viewBox="0 0 17.000000 16.000000"
 preserveAspectRatio="xMidYMid meet">

<g transform="translate(0.000000,16.000000) scale(0.100000,-0.100000)"
fill="#000000" stroke="none">
<path d="M72 144 c-16 -17 -15 -51 1 -57 6 -3 -3 -6 -20 -6 -22 -1 -33 -6 -33
-16 0 -8 -4 -15 -10 -15 -5 0 -10 -11 -10 -25 0 -20 5 -25 25 -25 20 0 25 5
25 25 0 14 -4 25 -10 25 -5 0 -10 5 -10 10 0 6 11 10 25 10 14 0 25 -4 25 -10
0 -5 -4 -10 -10 -10 -5 0 -10 -11 -10 -25 0 -20 5 -25 25 -25 20 0 25 5 25 25
0 14 -4 25 -10 25 -5 0 -10 5 -10 10 0 6 11 10 25 10 14 0 25 -4 25 -10 0 -5
-4 -10 -10 -10 -5 0 -10 -11 -10 -25 0 -20 5 -25 25 -25 20 0 25 5 25 25 0 14
-4 25 -10 25 -5 0 -10 7 -10 15 0 10 -11 15 -32 16 -18 0 -27 3 -20 6 16 6 16
41 -1 57 -10 11 -15 11 -25 0z m28 -29 c0 -8 -7 -15 -15 -15 -8 0 -15 7 -15
15 0 8 7 15 15 15 8 0 15 -7 15 -15z m-60 -90 c0 -8 -7 -15 -15 -15 -8 0 -15
7 -15 15 0 8 7 15 15 15 8 0 15 -7 15 -15z m60 0 c0 -8 -7 -15 -15 -15 -8 0
-15 7 -15 15 0 8 7 15 15 15 8 0 15 -7 15 -15z m60 0 c0 -8 -7 -15 -15 -15 -8
0 -15 7 -15 15 0 8 7 15 15 15 8 0 15 -7 15 -15z"/>
</g>
</svg>
